<svg preserveAspectRatio="none" overflow="visible" style="display: block;" width="303.6" height="418.862" viewBox="0 0 303.6 418.862" fill="none" xmlns="http://www.w3.org/2000/svg">
<path id="Vector" d="M196.504 0.0716696L196.795 0.0644811C202.72 -0.0749928 209.118 0.0555156 215.094 0.0536337L251.852 0.0417425L269.282 0.0482107C279.244 0.0129632 287.52 -0.586883 295.427 5.70406C300.436 9.63892 303.355 15.0719 303.537 20.8014C303.677 25.379 303.54 39.5133 303.537 48.4296L303.536 99.1214L303.537 238.225L303.543 306.865L303.551 327.002C303.548 342.183 303.309 352.495 296.316 364.275C292.617 370.506 287.768 374.657 282.485 376.115C278.636 377.161 269.821 376.773 265.566 376.773L236.697 376.768L169.961 376.788L143.068 376.801C138.663 376.803 134.182 376.675 129.826 376.813C121.085 377.091 112.958 382.011 106.953 389.577C105.273 391.693 103.733 393.878 102.111 396.064C100.134 398.684 98.1467 401.293 96.1483 403.888C90.4956 411.419 82.7638 417.469 74.321 418.607C71.4707 418.991 66.877 418.798 63.8717 418.796L46.6025 418.786L34.0165 418.829C30.347 418.873 23.6662 418.993 20.2749 418.198C16.0964 417.227 12.186 414.972 8.90751 411.645C3.87622 406.588 0.729599 399.24 0.186691 391.282C-0.121724 387.109 0.0446728 379.672 0.0460237 375.207L0.0523072 336.991L0.0438402 213.259L0.0503591 117.82L0.0441859 89.2319C0.0441702 84.4518 -0.0863339 77.01 0.243555 72.5345C0.871444 64.2204 3.02221 56.3929 6.42341 50.0428C9.79534 43.6837 15.0711 38.8312 20.127 37.0666C24.3653 35.587 29.7946 36.0132 34.2441 36.0115L51.774 36.0193L119.992 36.0213L131.586 36.0357C136.459 36.0581 140.935 36.4934 145.703 34.5039C168.387 22.9978 171.462 1.75613 196.504 0.0716696Z" fill="black"/>
</svg>
