<svg width="1342" height="940" viewBox="0 0 1342 940" fill="none" xmlns="http://www.w3.org/2000/svg">
<g filter="url(#filter0_din_694_48)">
<path d="M440.035 280.402C439.966 275.21 440.47 268.876 440.991 263.69C455.87 115.439 601.766 30.8098 741.228 42.5252C849.588 50.4567 954.776 124.15 963.026 239.015C964.526 259.906 963.236 280.998 963.603 301.905C949.008 311.374 938.725 317.681 925.06 328.734L925.03 264.573C925.045 253.481 925.443 240.835 924.963 229.895C904.878 248.538 884.643 267.021 864.265 285.343L869.718 290.562C881.485 301.108 893.178 311.74 904.795 322.455C909.108 326.417 920.035 336.823 924.475 340.148C932.32 332.484 954.093 319.11 963.633 313.776L963.581 465.914C954.161 462.188 944.891 458.034 935.365 454.523L934.038 454.918C935.89 473.418 945.461 501.005 953.185 518.13C955.983 524.341 961.203 532.672 963.528 538.338C963.423 547.537 962.613 621.895 964.113 626.489C968.47 625.781 972.843 625.165 977.23 624.645C980.65 626.657 984.378 628.757 987.67 630.928C990.378 634.729 1001.32 643.898 1005.38 647.737C1016.01 657.954 1026.55 668.277 1036.98 678.703C1044.61 687.396 1053.14 697.346 1060.26 706.42C1072.34 720.561 1082.65 733.808 1095.57 747.357L1096.77 748.213L1100.3 752.054C1103.54 754.889 1106.9 757.935 1110.24 760.628C1114.65 763.989 1118.78 767.155 1123.41 770.231C1131.36 775.062 1141.05 779.848 1148.27 784.349C1170.05 793.981 1187.74 806.074 1207.21 819.39L1215.56 825.392C1221.15 830.733 1231.71 845.684 1237.05 852.421C1254.22 874.078 1270.08 897.514 1286.52 919.524C1285.39 919.75 1285.82 919.81 1284.78 919.479C1252.26 915.443 1220.29 908.729 1188.3 903.696C1156.05 898.624 1119.23 891.588 1087.72 887.207C987.625 873.298 832.12 853.981 735.528 885.541C717.468 891.265 700.526 900.072 685.458 911.565C677.591 917.672 671.388 924.101 664.698 931.415C622.071 883.073 568.161 873.598 506.043 869.187C468.769 866.532 428.978 867.927 391.589 870.087C302.49 876.014 213.882 887.829 126.345 905.466C99.6262 910.717 73.428 917.184 46.9207 922.645C44.6857 923.5 44.3557 923.74 42.018 923.808C42.6075 920.522 71.5425 865.016 75.5572 859.742C85.9672 846.322 110.239 821.093 122.254 808.137C138.538 792.804 155.288 776.63 172.436 762.406C175.279 759.368 181.501 753.974 184.77 750.958C189.49 747.537 200.961 734.637 204.852 730.209C213.901 719.715 222.315 708.692 230.052 697.196C234.19 691.073 242.577 677.684 247.023 672.57C264.218 659.585 285.23 645.807 303.283 633.38L398.03 567.636C402.045 565.145 406.795 561.512 411.024 558.768C411.931 554.474 411.127 534.225 411.119 528.633L411.225 443.184L440.201 427.512L440.119 419.902L440.067 399.975C439.719 360.118 439.708 320.259 440.035 280.402Z" fill="#00215C"/>
<path d="M964.113 626.489C968.47 625.781 972.843 625.165 977.23 624.645C980.65 626.657 984.378 628.757 987.67 630.928C990.378 634.729 1001.32 643.898 1005.38 647.737C1016.01 657.954 1026.55 668.277 1036.98 678.703C1044.61 687.396 1053.14 697.346 1060.26 706.42C1072.34 720.561 1082.65 733.808 1095.57 747.357L1096.77 748.213L1100.3 752.054C1103.54 754.889 1106.9 757.935 1110.24 760.628C1114.65 763.989 1118.78 767.155 1123.41 770.231C1131.36 775.062 1141.05 779.848 1148.27 784.349C1170.05 793.981 1187.74 806.074 1207.21 819.39L1215.56 825.392C1221.15 830.733 1231.71 845.684 1237.05 852.421C1254.22 874.078 1270.08 897.514 1286.52 919.524C1285.39 919.75 1285.82 919.81 1284.78 919.479C1252.26 915.443 1220.29 908.729 1188.3 903.696C1156.05 898.624 1119.23 891.588 1087.72 887.207C987.625 873.298 832.12 853.981 735.528 885.541C717.468 891.265 700.526 900.072 685.458 911.565C677.591 917.672 671.388 924.101 664.698 931.415C622.071 883.073 568.161 873.598 506.043 869.187C468.769 866.532 428.978 867.927 391.589 870.087C302.49 876.014 213.882 887.829 126.345 905.466C99.6262 910.717 73.428 917.184 46.9207 922.645C44.6857 923.5 44.3557 923.74 42.018 923.808C42.6075 920.522 71.5425 865.016 75.5572 859.742C85.9672 846.322 110.239 821.093 122.254 808.137C138.538 792.804 155.288 776.63 172.436 762.406C175.279 759.368 181.501 753.974 184.77 750.958C189.49 747.537 200.961 734.637 204.852 730.209C213.901 719.715 222.315 708.692 230.052 697.196C234.19 691.073 242.577 677.684 247.023 672.57L250.7 672.425C300.022 662.778 370.81 669.22 418.561 684.875C483.515 703.385 538.801 731.054 588.987 776.435L587.616 778.985C596.259 786.6 603.218 792.849 610.975 801.326C614.132 804.776 623.304 817.094 625.834 819.218C636.027 835.324 657.971 868.85 657.371 888.459C659.111 894.693 660.738 900.957 662.253 907.244L663.76 907.079L665.043 906.944L665.53 911.783L666.468 912.54L667.21 911.903C667.338 909.082 667.998 907.266 668.763 904.573L669.048 901.01C669.056 900.432 669.033 899.262 669.108 898.692C680.223 814.334 782.013 723.005 845.238 680.436C854.8 674.029 864.61 667.994 874.638 662.344C882.041 658.258 890.493 654.222 897.588 649.844C900.123 649.418 915.483 641.929 919.091 640.469C929.493 636.221 940.166 632.673 951.041 629.85C955.421 628.827 959.778 627.706 964.113 626.489Z" fill="#00215C"/>
<path d="M964.113 626.489C968.47 625.781 972.843 625.165 977.23 624.645C980.65 626.657 984.378 628.757 987.67 630.928C990.378 634.729 1001.32 643.898 1005.38 647.737C1016.01 657.954 1026.55 668.277 1036.98 678.703C1044.61 687.396 1053.14 697.346 1060.26 706.42C1072.34 720.561 1082.65 733.808 1095.57 747.357L1096.77 748.213L1100.3 752.054C1103.54 754.889 1106.9 757.935 1110.24 760.628C1114.65 763.989 1118.78 767.155 1123.41 770.231C1131.36 775.062 1141.05 779.848 1148.27 784.349C1170.05 793.981 1187.74 806.074 1207.21 819.39L1215.56 825.392C1221.15 830.733 1231.71 845.684 1237.05 852.421C1254.22 874.078 1270.08 897.514 1286.52 919.524C1285.39 919.75 1285.82 919.81 1284.78 919.479C1282.45 917.469 1279.01 915.759 1276.11 914.603C1199.47 883.988 1117.98 863.801 1037.65 845.421C993.813 835.391 948.333 825.121 903.911 819.48C879.026 816.179 853.833 815.857 828.873 818.527C774.078 824.491 722.71 847.582 685.788 889.195C680.59 895.046 675.498 906.186 670.33 912.48C669.603 913.358 669.753 912.968 667.968 913.148L667.21 911.903C667.338 909.082 667.998 907.266 668.763 904.573L669.048 901.01C669.056 900.432 669.033 899.262 669.108 898.692C680.223 814.334 782.013 723.005 845.238 680.436C854.8 674.029 864.61 667.994 874.638 662.344C882.041 658.258 890.493 654.222 897.588 649.844C900.123 649.418 915.483 641.929 919.091 640.469C929.493 636.221 940.166 632.673 951.041 629.85C955.421 628.827 959.778 627.706 964.113 626.489Z" fill="#003197"/>
<path d="M964.113 626.489C968.47 625.781 972.843 625.165 977.23 624.645C980.65 626.657 984.378 628.757 987.67 630.928C990.378 634.729 1001.32 643.898 1005.38 647.737C1016.01 657.954 1026.55 668.277 1036.98 678.703C1044.61 687.396 1053.14 697.346 1060.26 706.42C1044.67 707.429 1029.61 706.924 1013.37 708.007C919.016 714.289 818.163 734.336 744.251 797.282C743.973 797.53 743.471 798.22 743.313 798.43C714.048 823.906 696.078 841.978 679.135 878.114C675.281 886.719 672.093 897.627 668.763 904.573L669.048 901.01C669.056 900.432 669.033 899.262 669.108 898.692C680.223 814.334 782.013 723.005 845.238 680.436C854.8 674.029 864.61 667.994 874.638 662.344C882.041 658.258 890.493 654.222 897.588 649.844C900.123 649.418 915.483 641.929 919.091 640.469C929.493 636.221 940.166 632.673 951.041 629.85C955.421 628.827 959.778 627.706 964.113 626.489Z" fill="#FDF0CD"/>
<path d="M1036.98 678.703C1044.61 687.396 1053.14 697.346 1060.26 706.42C1044.67 707.429 1029.61 706.924 1013.37 708.007C919.016 714.289 818.163 734.336 744.251 797.282C743.973 797.53 743.471 798.22 743.313 798.43C714.048 823.906 696.078 841.978 679.135 878.114C675.281 886.719 672.093 897.627 668.763 904.573L669.048 901.01C679.098 859.48 706.781 819.51 737.148 790.118C817.63 712.233 926.5 677.152 1036.98 678.703Z" fill="#00215C"/>
<path d="M1060.26 706.42C1072.34 720.561 1082.65 733.808 1095.57 747.357L1096.77 748.213L1100.3 752.054C1103.54 754.889 1106.9 757.935 1110.24 760.628C1114.65 763.989 1118.78 767.155 1123.41 770.231C1131.36 775.062 1141.05 779.848 1148.27 784.349C1124.79 784.604 1093.29 779.9 1069.67 776.945C951.266 762.121 808.585 736.715 715.015 832.593C701.568 846.389 689.973 861.873 680.515 878.662L679.135 878.114C696.078 841.978 714.048 823.906 743.313 798.43C743.471 798.22 743.973 797.53 744.251 797.282C818.163 734.336 919.016 714.289 1013.37 708.007C1029.61 706.924 1044.67 707.429 1060.26 706.42Z" fill="#FDF0CD"/>
<path d="M1060.26 706.42C1072.34 720.561 1082.65 733.808 1095.57 747.357C1088.49 747.515 1078.11 745.887 1070.85 745.137C1055.77 743.464 1040.66 742.121 1025.52 741.108C945.43 736.457 856.271 739.721 782.831 774.987C769.541 781.371 755.756 790.35 743.313 798.43C743.471 798.22 743.973 797.53 744.251 797.282C818.163 734.336 919.016 714.289 1013.37 708.007C1029.61 706.924 1044.67 707.429 1060.26 706.42Z" fill="#0092FD"/>
<path d="M680.515 878.662C689.973 861.873 701.568 846.389 715.015 832.593C808.585 736.715 951.266 762.121 1069.67 776.945C1093.29 779.9 1124.79 784.604 1148.27 784.349C1170.05 793.981 1187.74 806.074 1207.21 819.39L1215.56 825.392L1214.82 825.376C1199.17 825.061 1166.98 820.125 1151.26 817.762C1112.79 811.716 1074.44 804.949 1036.22 797.477C950.358 781.213 864.678 764.012 780.446 798.662C734.756 817.462 706.076 842.001 680.403 883.493L680.515 878.662Z" fill="#FEB80A"/>
<path d="M680.515 878.662L680.403 883.493C677.126 889.862 668.875 906.194 667.968 913.148L667.21 911.903C667.338 909.082 667.998 907.266 668.763 904.573C672.093 897.627 675.281 886.719 679.135 878.114L680.515 878.662Z" fill="#FEB80A"/>
<path d="M250.7 672.425C300.022 662.778 370.81 669.22 418.561 684.875C483.515 703.385 538.801 731.054 588.987 776.435L587.616 778.985C596.259 786.6 603.218 792.849 610.975 801.326C614.132 804.776 623.304 817.094 625.834 819.218C636.027 835.324 657.971 868.85 657.371 888.459C656.673 886.464 655.788 884.416 654.978 882.45C652.248 880.027 645.138 864.604 641.723 859.082L639.335 859.93C598.326 794.529 517.612 757.912 441.649 761.446C381.715 764.229 323.701 783.494 266.699 800.62C203.12 819.735 139.779 843.096 75.5572 859.742C85.9672 846.322 110.239 821.093 122.254 808.137C138.538 792.804 155.288 776.63 172.436 762.406C175.279 759.368 181.501 753.974 184.77 750.958C189.49 747.537 200.961 734.637 204.852 730.209C213.901 719.715 222.315 708.692 230.052 697.196C234.19 691.073 242.577 677.684 247.023 672.57L250.7 672.425Z" fill="#FEB80A"/>
<path d="M250.7 672.425C300.022 662.778 370.81 669.22 418.561 684.875C483.515 703.385 538.801 731.054 588.987 776.435L587.616 778.985C596.259 786.6 603.218 792.849 610.975 801.326C614.132 804.776 623.304 817.094 625.834 819.218C636.027 835.324 657.971 868.85 657.371 888.459C656.673 886.464 655.788 884.416 654.978 882.45C652.248 880.027 645.138 864.604 641.723 859.082C622 825.677 598.394 803.209 566.456 781.903L570.726 773.951C465.993 694.539 310.324 700.861 194.93 751.251C187.449 754.514 180.035 759.03 172.436 762.406C175.279 759.368 181.501 753.974 184.77 750.958C189.49 747.537 200.961 734.637 204.852 730.209C213.901 719.715 222.315 708.692 230.052 697.196C234.19 691.073 242.577 677.684 247.023 672.57L250.7 672.425Z" fill="#00215C"/>
<path d="M250.7 672.425C300.022 662.778 370.81 669.22 418.561 684.875C483.515 703.385 538.801 731.054 588.987 776.435L587.616 778.985C491.092 699.572 372.911 673.303 250.7 672.425Z" fill="#FEB80A"/>
<path d="M570.726 773.951C603.521 797.537 644.44 842.608 654.978 882.45C652.248 880.027 645.138 864.604 641.723 859.082C622 825.677 598.394 803.209 566.456 781.903L570.726 773.951Z" fill="#FBF1E0"/>
<path d="M172.436 762.406C180.035 759.03 187.449 754.514 194.93 751.251C310.324 700.861 465.993 694.539 570.726 773.951L566.456 781.903C483.313 731.266 402.866 732.559 310.81 754.919C268.232 765.257 227.071 778.895 185.086 791.138C175.436 793.951 130.336 807.725 122.254 808.137C138.538 792.804 155.288 776.63 172.436 762.406Z" fill="#FDF0CD"/>
<path d="M75.5572 859.742C139.779 843.096 203.12 819.735 266.699 800.62C323.701 783.494 381.715 764.229 441.649 761.446C517.612 757.912 598.326 794.529 639.335 859.93L641.723 859.082C645.138 864.604 652.248 880.027 654.978 882.45C655.788 884.416 656.673 886.464 657.371 888.459C659.111 894.693 660.738 900.957 662.253 907.244C662.283 908.707 662.38 910.177 662.163 911.618C661.083 907.462 660.341 904.798 658.81 900.815L657.551 901.805C654.213 899.967 651.911 892.938 649.668 889.532C620.273 844.776 571.325 820.575 519.681 810.935C471.535 801.948 424.516 809.338 376.959 819.645C343.85 827.057 311.001 835.594 278.468 845.226C212.124 864.559 146.32 885.706 81.1275 908.624C74.235 911.13 51.6442 918.917 46.9207 922.645C44.6857 923.5 44.3557 923.74 42.018 923.808C42.6075 920.522 71.5425 865.016 75.5572 859.742Z" fill="#003197"/>
<path d="M641.723 859.082C645.138 864.604 652.248 880.027 654.978 882.45C655.788 884.416 656.673 886.464 657.371 888.459C659.111 894.693 660.738 900.957 662.253 907.244C662.283 908.707 662.38 910.177 662.163 911.618C661.083 907.462 660.341 904.798 658.81 900.815C653.133 884.829 648.168 874.573 639.335 859.93L641.723 859.082Z" fill="#FEB80A"/>
<path d="M662.253 907.244L663.76 907.079L665.043 906.944L665.53 911.783L666.468 912.54L667.21 911.903L667.968 913.148C667.248 914.903 665.478 923.748 664.953 926.126C664.098 922.278 662.305 915.301 662.163 911.618C662.38 910.177 662.283 908.707 662.253 907.244Z" fill="#4BB0EC"/>
<path d="M869.718 290.562C881.485 301.108 893.178 311.74 904.795 322.455C909.108 326.417 920.035 336.823 924.475 340.148C932.32 332.484 954.093 319.11 963.633 313.776L963.581 465.914C954.161 462.188 944.891 458.034 935.365 454.523L934.038 454.918C935.89 473.418 945.461 501.005 953.185 518.13C955.983 524.341 961.203 532.672 963.528 538.338C963.423 547.537 962.613 621.895 964.113 626.489C959.778 627.706 955.421 628.827 951.041 629.85C940.166 632.673 929.493 636.221 919.091 640.469C915.483 641.929 900.123 649.418 897.588 649.844C890.493 654.222 882.041 658.258 874.638 662.344C864.61 667.994 854.8 674.029 845.238 680.436C782.013 723.005 680.223 814.334 669.108 898.692C669.033 899.262 669.056 900.432 669.048 901.01L668.763 904.573C667.998 907.266 667.338 909.082 667.21 911.903L666.468 912.54L665.53 911.783L665.043 906.944L663.76 907.079L662.253 907.244C660.738 900.957 659.111 894.693 657.371 888.459C657.971 868.85 636.027 835.324 625.834 819.218C623.304 817.094 614.132 804.776 610.975 801.326C603.218 792.849 596.259 786.6 587.616 778.985L588.987 776.435C538.801 731.054 483.515 703.385 418.561 684.875C370.81 669.22 300.022 662.778 250.7 672.425L247.023 672.57C264.218 659.585 285.23 645.807 303.283 633.38L398.03 567.636C402.045 565.145 406.795 561.512 411.024 558.768C420.745 563.575 430.425 568.463 440.064 573.432C460.984 584.515 486.319 599.439 505.269 613.79C548.648 646.16 591.073 687.771 616.659 736.038C623.682 732.665 630.508 728.457 637.15 724.394C659.313 710.839 689.785 690.121 696.025 663.124C711.903 594.433 546.149 603.394 527.374 571.397C525.502 568.207 525.146 564.544 526.062 560.99C529.252 548.621 543.867 540.256 554.144 534.23C569.086 526.453 598.721 516.451 615.386 513.945C638.428 508.002 662.988 504.409 685.945 498.566C701.665 495.106 706.863 493.901 720.693 486.111C714.573 477.152 675.925 464.019 662.778 457.027C661.27 456.468 659.463 455.454 658 454.705C670.975 454.3 684.325 455.194 697.128 454.899C709.48 454.891 724.293 454.559 736.458 455.143C748.315 453.655 761.778 450.439 773.47 449.364C799.78 446.947 816.108 439.978 840.183 430.149L845.005 428.278L851.411 425.369L859.24 430.191L859.218 321.731C859.218 314.491 859.263 307.252 859.353 300.013C862.728 296.862 865.503 294.323 869.103 291.415L869.718 290.562Z" fill="#FDF0CD"/>
<path d="M869.718 290.562C881.485 301.108 893.178 311.74 904.795 322.455C909.108 326.417 920.035 336.823 924.475 340.148C932.32 332.484 954.093 319.11 963.633 313.776L963.581 465.914C954.161 462.188 944.891 458.034 935.365 454.523L934.038 454.918C935.89 473.418 945.461 501.005 953.185 518.13C955.983 524.341 961.203 532.672 963.528 538.338C963.423 547.537 962.613 621.895 964.113 626.489C959.778 627.706 955.421 628.827 951.041 629.85C940.166 632.673 929.493 636.221 919.091 640.469C915.483 641.929 900.123 649.418 897.588 649.844C890.493 654.222 882.041 658.258 874.638 662.344C864.61 667.994 854.8 674.029 845.238 680.436C782.013 723.005 680.223 814.334 669.108 898.692C669.033 899.262 669.056 900.432 669.048 901.01L668.763 904.573C667.998 907.266 667.338 909.082 667.21 911.903L666.468 912.54L665.53 911.783L665.043 906.944L663.76 907.079C663.363 902.87 663.138 899.457 663.041 895.234C666.191 891.22 663.603 877.724 664.983 870.185L665.418 862.556C669.58 796.922 706.3 758.31 759.738 724.24C792.888 703.105 889.466 645.053 815.223 608.534C800.268 601.178 783.206 596.772 767.201 592.118C760.683 589.757 753.685 588.2 747.003 586.332C730.278 581.656 713.328 577.189 697.105 570.953C688.113 567.496 672.318 561.93 668.515 552.34C667.428 549.612 667.481 546.798 668.673 544.122C675.356 529.213 728.943 514.634 745.563 507.767C751.736 505.405 760.473 502.409 766.12 499.443C809.891 476.456 733.233 463.41 717.738 459.473L730.181 456.618L736.458 455.143C748.315 453.655 761.778 450.439 773.47 449.364C799.78 446.947 816.108 439.978 840.183 430.149L845.005 428.278L851.411 425.369L859.24 430.191L859.218 321.731C859.218 314.491 859.263 307.252 859.353 300.013C862.728 296.862 865.503 294.323 869.103 291.415L869.718 290.562Z" fill="#0092FD"/>
<path d="M869.718 290.562C881.485 301.108 893.178 311.74 904.795 322.455C909.108 326.417 920.035 336.823 924.475 340.148C932.32 332.484 954.093 319.11 963.633 313.776L963.581 465.914C954.161 462.188 944.891 458.034 935.365 454.523L934.038 454.918C935.89 473.418 945.461 501.005 953.185 518.13C955.983 524.341 961.203 532.672 963.528 538.338C963.423 547.537 962.613 621.895 964.113 626.489C959.778 627.706 955.421 628.827 951.041 629.85C945.558 625.335 931.315 616.889 924.708 612.847C906.296 602.862 887.755 593.106 869.096 583.583C866.021 582.376 862.263 580.266 859.255 578.689C859.24 547.161 859.48 515.366 859.12 483.864C859.218 478.28 859.225 472.696 859.12 467.112C859.51 455.34 859.24 442.075 859.24 430.191L859.218 321.731C859.218 314.491 859.263 307.252 859.353 300.013C862.728 296.862 865.503 294.323 869.103 291.415L869.718 290.562Z" fill="#00215C"/>
<path d="M963.633 313.776L963.581 465.914C954.161 462.188 944.891 458.034 935.365 454.523L934.038 454.918C935.89 473.418 945.461 501.005 953.185 518.13C955.983 524.341 961.203 532.672 963.528 538.338C963.423 547.537 962.613 621.895 964.113 626.489C959.778 627.706 955.421 628.827 951.041 629.85C945.558 625.335 931.315 616.889 924.708 612.847C925.63 594.642 924.865 569.745 924.85 550.815L924.843 437.493L924.948 373.246C924.948 365.207 925.368 347.385 924.475 340.148C932.32 332.484 954.093 319.11 963.633 313.776Z" fill="#0059FE"/>
<path d="M859.353 300.013C862.728 296.862 865.503 294.323 869.103 291.415L869.096 583.583C866.021 582.376 862.263 580.266 859.255 578.689C859.24 547.161 859.48 515.366 859.12 483.864C859.218 478.28 859.225 472.696 859.12 467.112C859.51 455.34 859.24 442.075 859.24 430.191L859.218 321.731C859.218 314.491 859.263 307.252 859.353 300.013Z" fill="#FDF0CD"/>
<path d="M845.005 428.278L851.411 425.369L859.24 430.191C859.24 442.075 859.51 455.34 859.12 467.112C859.225 472.696 859.218 478.28 859.12 483.864C859.48 515.366 859.24 547.161 859.255 578.689L859.218 595.667C846.318 589.803 822.978 584.391 809.043 581.351C787.675 576.691 765.918 572.46 744.46 567.915C732.31 565.508 712.57 562.313 702.363 555.444C700.248 554.023 698.328 552.113 697.99 549.47C697.451 545.275 701.201 541.624 704.291 539.346C724.218 524.655 814.66 499.487 822.73 487.849C823.375 486.921 823.998 485.28 823.758 484.137C823.098 481 820.84 479.308 818.155 477.835C805.255 470.751 770.02 464.982 754.608 462.304C747.798 461.121 736.218 460.665 730.608 456.923C730.458 456.827 730.323 456.719 730.181 456.618L736.458 455.143C748.315 453.655 761.778 450.439 773.47 449.364C799.78 446.947 816.108 439.978 840.183 430.149L845.005 428.278Z" fill="#003197"/>
<path d="M744.46 567.915C746.463 565.161 768.745 547.328 773.553 543.373C791.891 528.229 810.318 513.203 828.843 498.298C837.303 491.507 849.243 481.454 857.838 475.57C859.105 477.556 858.97 481.305 859.12 483.864C859.48 515.366 859.24 547.161 859.255 578.689L859.218 595.667C846.318 589.803 822.978 584.391 809.043 581.351C787.675 576.691 765.918 572.46 744.46 567.915Z" fill="#00215C"/>
<path d="M845.005 428.278L851.411 425.369L859.24 430.191C859.24 442.075 859.51 455.34 859.12 467.112C858.843 469.701 859.218 471.263 857.688 472.626C844.368 472.03 816.333 467.547 802.548 465.441C809.973 458.835 843.13 434.328 845.005 428.278Z" fill="#00215C"/>
<path d="M859.255 578.689C862.263 580.266 866.021 582.376 869.096 583.583C887.755 593.106 906.296 602.862 924.708 612.847C931.315 616.889 945.558 625.335 951.041 629.85C940.166 632.673 929.493 636.221 919.091 640.469C915.483 641.929 900.123 649.418 897.588 649.844C897.94 648.965 898.286 648.08 898.608 647.191C908.801 619.427 881.193 603.705 859.218 595.667L859.255 578.689Z" fill="#FEB80A"/>
<path d="M663.041 895.234C666.191 891.22 663.603 877.724 664.983 870.185C665.14 882.435 665.163 894.693 665.043 906.944L663.76 907.079C663.363 902.87 663.138 899.457 663.041 895.234Z" fill="#AFDEF4"/>
<path d="M720.693 486.111C715 502.809 680.493 507.856 664.991 513.963C650.036 518.035 633.989 521.736 619.077 527.567C593.501 537.569 566.59 552.341 603.701 573.414C637.924 592.846 748.061 602.484 768.881 631.943C771.468 641.329 770.666 648.749 765.791 657.289C743.141 696.964 660.116 720.389 621.007 743.554C619.827 741.258 618.001 738.325 616.659 736.038C623.682 732.665 630.508 728.457 637.15 724.394C659.313 710.839 689.785 690.121 696.025 663.124C711.903 594.433 546.149 603.394 527.374 571.397C525.502 568.207 525.146 564.544 526.062 560.99C529.252 548.621 543.867 540.256 554.144 534.23C569.086 526.453 598.721 516.451 615.386 513.945C638.428 508.002 662.988 504.409 685.945 498.566C701.665 495.106 706.863 493.901 720.693 486.111Z" fill="#0092FD"/>
<path d="M395.989 609.393C410.365 614.803 424.775 620.29 438.813 626.537C522.367 663.719 604.667 730.525 642.93 815.129C649.008 828.46 653.748 842.353 657.086 856.614C663.19 856.479 664.315 856.899 665.418 862.556L664.983 870.185C663.603 877.724 666.191 891.22 663.041 895.234C663.138 899.457 663.363 902.87 663.76 907.079L662.253 907.244C660.738 900.957 659.111 894.693 657.371 888.459C657.971 868.85 636.027 835.324 625.834 819.218C623.304 817.094 614.132 804.776 610.975 801.326C603.218 792.849 596.259 786.6 587.616 778.985L588.987 776.435C538.801 731.054 483.515 703.385 418.561 684.875C411.715 662.113 403.542 631.267 395.989 609.393Z" fill="#0092FD"/>
<path d="M657.086 856.614C663.19 856.479 664.315 856.899 665.418 862.556L664.983 870.185C663.603 877.724 666.191 891.22 663.041 895.234C661.751 880.095 660.153 871.348 657.086 856.614Z" fill="#F9F8EB"/>
<path d="M588.987 776.435C598.367 785.774 620.35 807.717 625.834 819.218C623.304 817.094 614.132 804.776 610.975 801.326C603.218 792.849 596.259 786.6 587.616 778.985L588.987 776.435Z" fill="#FEB80A"/>
<path d="M768.881 631.943C786.236 647.783 772.878 673.271 759.723 686.932C723.213 724.859 651.348 750.576 651.543 812.968L649.525 812.556C641.735 787.102 632.655 767.072 621.007 743.554C660.116 720.389 743.141 696.964 765.791 657.289C770.666 648.749 771.468 641.329 768.881 631.943Z" fill="#FEB80A"/>
<path d="M767.201 592.118C762.461 592.177 737.898 586.992 730.72 585.269C702.205 578.424 659.598 575.149 636.018 557.656C633.922 556.101 631.6 551.984 631.762 549.279C631.997 545.366 633.833 543.779 636.172 541.197C639.599 537.41 651.04 532.206 655.54 530.653C666.348 526.921 738.528 507.572 745.563 507.767C728.943 514.634 675.356 529.213 668.673 544.122C667.481 546.798 667.428 549.612 668.515 552.34C672.318 561.93 688.113 567.496 697.105 570.953C713.328 577.189 730.278 581.656 747.003 586.332C753.685 588.2 760.683 589.757 767.201 592.118Z" fill="#FEB80A"/>
<path d="M662.778 457.027C681.46 458.889 733.84 470.027 746.928 480.406C766.915 496.258 671.088 514.712 664.991 513.963C680.493 507.856 715 502.809 720.693 486.111C714.573 477.152 675.925 464.019 662.778 457.027Z" fill="#FEB80A"/>
<path d="M651.543 812.968L651.348 816.412L650.733 816.749C650.058 814.949 649.863 814.424 649.525 812.556L651.543 812.968Z" fill="#FED459"/>
<path d="M440.035 280.402C439.966 275.21 440.47 268.876 440.991 263.69C455.87 115.439 601.766 30.8098 741.228 42.5252C849.588 50.4567 954.776 124.15 963.026 239.015C964.526 259.906 963.236 280.998 963.603 301.905C949.008 311.374 938.725 317.681 925.06 328.734L925.03 264.573C925.045 253.481 925.443 240.835 924.963 229.895C904.878 248.538 884.643 267.021 864.265 285.343L869.718 290.562L869.103 291.415C865.503 294.323 862.728 296.862 859.353 300.013C858.858 276.038 860.441 242.664 858.236 220.038C854.268 182.074 836.823 146.792 809.073 120.594C772.278 85.2308 720.303 66.462 669.528 67.5565C617.004 68.5565 567.043 90.4371 530.686 128.362C500.048 160.645 481.561 202.562 478.378 246.961C476.977 266.458 478.075 291.368 477.82 311.449C465.359 300.938 452.763 290.588 440.035 280.402Z" fill="#0092FD"/>
<path d="M741.228 42.5252C849.588 50.4567 954.776 124.15 963.026 239.015C964.526 259.906 963.236 280.998 963.603 301.905C949.008 311.374 938.725 317.681 925.06 328.734L925.03 264.573C925.045 253.481 925.443 240.835 924.963 229.895C915.401 146.919 865.218 86.233 787.765 56.5358C781.015 53.9475 743.486 44.6002 741.228 42.5252Z" fill="#0059FE"/>
<path d="M623.717 437.764C642.502 327.655 760.443 257.034 859.218 321.731L859.24 430.191L851.411 425.369L845.005 428.278L840.183 430.149C816.108 439.978 799.78 446.947 773.47 449.364C761.778 450.439 748.315 453.655 736.458 455.143C724.293 454.559 709.48 454.891 697.128 454.899C684.325 455.194 670.975 454.3 658 454.705C646.465 449.269 635.039 443.621 623.717 437.764Z" fill="#FE9201"/>
<path d="M697.128 454.899C700.398 454.688 702.986 454.584 702.768 450.487C701.935 434.68 706.323 419.516 715.315 406.145C726.288 389.534 743.463 378.019 762.993 374.177C802.383 366.786 833.313 391.73 840.183 430.149C816.108 439.978 799.78 446.947 773.47 449.364C761.778 450.439 748.315 453.655 736.458 455.143C724.293 454.559 709.48 454.891 697.128 454.899Z" fill="#FEB80A"/>
<path d="M440.035 280.402C452.763 290.588 465.359 300.938 477.82 311.449L477.865 424.572L477.772 473.085C477.821 491.848 477.358 512.738 478.127 531.289C469.612 535.957 447.586 548.855 440.105 551.832L440.064 573.432C430.425 568.463 420.745 563.575 411.024 558.768C411.931 554.474 411.127 534.225 411.119 528.633L411.225 443.184L440.201 427.512L440.119 419.902L440.067 399.975C439.719 360.118 439.708 320.259 440.035 280.402Z" fill="#FDF0CD"/>
<path d="M440.201 427.512L440.105 551.832L440.064 573.432C430.425 568.463 420.745 563.575 411.024 558.768C411.931 554.474 411.127 534.225 411.119 528.633L411.225 443.184L440.201 427.512Z" fill="#00215C"/>
<path d="M551.761 396.378C575.401 408.894 599.342 424.735 623.717 437.764C635.039 443.621 646.465 449.269 658 454.705C659.463 455.454 661.27 456.468 662.778 457.027C675.925 464.019 714.573 477.152 720.693 486.111C706.863 493.901 701.665 495.106 685.945 498.566C662.988 504.409 638.428 508.002 615.386 513.945C610.626 502.159 600.966 488.983 595.654 477.017C582.388 451.07 566.018 421.838 551.761 396.378Z" fill="#0059FE"/>
<path d="M595.654 477.017C611.175 479.408 632.156 485.46 647.966 489.027C657.033 491.074 678.093 495.74 685.945 498.566C662.988 504.409 638.428 508.002 615.386 513.945C610.626 502.159 600.966 488.983 595.654 477.017Z" fill="#003197"/>
<path d="M478.127 531.289C486.938 526.277 496.601 521.004 505.227 515.81L505.269 613.79C486.319 599.439 460.984 584.515 440.064 573.432L440.105 551.832C447.586 548.855 469.612 535.957 478.127 531.289Z" fill="#FEB80A"/>
<path d="M481.134 474.918C491.048 477.793 501.202 481.802 511.369 484.838C545.917 494.982 580.592 504.684 615.386 513.945C598.721 516.451 569.086 526.453 554.144 534.23C547.918 530.616 530.702 525.482 523.429 523.124C512.573 507.849 489.732 487.928 481.134 474.918Z" fill="#003197"/>
<path d="M477.865 424.572C478.104 427.145 478.057 430.268 479.403 432.294C485.401 430.578 500.338 422.507 506.698 419.229L551.89 396.125C541.201 408.735 479.878 465.558 477.772 473.085L477.865 424.572Z" fill="#003197"/>
<path d="M544.813 206.702C546.809 211.778 546.807 219.564 551.283 225.703C555.952 232.107 560.346 233.489 567.723 235.024C549.68 240.579 548.217 247.78 544.889 265.408C541.501 248.655 539.905 239.85 521.899 235.413C539.605 230.379 541.139 224.091 544.813 206.702Z" fill="#FDF0CD"/>
<path d="M774.213 177.806C777.175 177.316 780.025 179.157 780.798 182.062C781.57 184.966 780.01 187.982 777.19 189.03C775.113 189.803 772.781 189.33 771.161 187.809C769.548 186.289 768.933 183.983 769.578 181.861C770.23 179.74 772.023 178.167 774.213 177.806Z" fill="#FDF0CD"/>
<path d="M704.771 127.551C707.748 127.408 710.276 129.716 710.396 132.693C710.516 135.67 708.19 138.176 705.213 138.276C702.266 138.374 699.791 136.077 699.671 133.131C699.551 130.184 701.831 127.693 704.771 127.551Z" fill="#FBF1E0"/>
<path d="M555.774 141.023C558.451 139.987 561.465 141.272 562.57 143.921C563.676 146.57 562.47 149.618 559.852 150.792C558.096 151.58 556.051 151.353 554.511 150.199C552.971 149.044 552.179 147.146 552.441 145.239C552.704 143.332 553.979 141.717 555.774 141.023Z" fill="#FBF1E0"/>
<path d="M593.779 303.051C595.471 302.28 597.446 302.477 598.953 303.568C600.459 304.659 601.263 306.475 601.058 308.324C600.853 310.172 599.672 311.769 597.964 312.503C595.361 313.623 592.343 312.439 591.197 309.848C590.05 307.258 591.201 304.227 593.779 303.051Z" fill="#FBF1E0"/>
<path d="M657.835 185.257C660.28 184.472 662.913 185.703 663.873 188.079C664.833 190.454 663.798 193.169 661.503 194.302C659.853 195.112 657.895 194.935 656.425 193.843C654.955 192.751 654.213 190.927 654.513 189.118C654.813 187.31 656.095 185.819 657.835 185.257Z" fill="#FBF1E0"/>
<path d="M732.018 258.06C733.195 257.321 734.688 257.278 735.911 257.948C737.126 258.618 737.891 259.896 737.906 261.29C737.913 262.683 737.171 263.974 735.963 264.665C734.148 265.702 731.831 265.095 730.758 263.297C729.678 261.498 730.24 259.171 732.018 258.06Z" fill="#FBF1E0"/>
<path d="M601.92 645.871C603.629 644.938 605.771 645.553 606.725 647.251C607.679 648.949 607.09 651.098 605.405 652.074C604.296 652.715 602.928 652.711 601.823 652.062C600.718 651.413 600.048 650.219 600.068 648.938C600.088 647.657 600.796 646.485 601.92 645.871Z" fill="#FBF1E0"/>
<path d="M510.466 307.542C511.699 307.272 512.981 307.695 513.809 308.648C514.637 309.6 514.88 310.929 514.442 312.112C514.003 313.295 512.955 314.145 511.706 314.328C509.867 314.598 508.145 313.362 507.811 311.534C507.478 309.705 508.651 307.94 510.466 307.542Z" fill="#FBF1E0"/>
<path d="M627.815 341.356C628.874 340.602 630.275 340.529 631.409 341.168C632.542 341.807 633.203 343.044 633.106 344.342C633.009 345.64 632.171 346.765 630.955 347.228C629.377 347.829 627.598 347.164 626.801 345.675C626.004 344.185 626.438 342.336 627.815 341.356Z" fill="#FBF1E0"/>
<path d="M821.628 231.056C823.068 230.048 825.056 230.375 826.098 231.794C827.141 233.213 826.863 235.205 825.468 236.282C824.538 237.003 823.285 237.162 822.205 236.698C821.118 236.234 820.375 235.219 820.255 234.048C820.135 232.876 820.66 231.731 821.628 231.056Z" fill="#FBF1E0"/>
<path d="M541.719 372.777C542.823 372.181 544.173 372.28 545.177 373.033C546.182 373.784 546.658 375.051 546.398 376.279C546.138 377.507 545.188 378.471 543.965 378.75C542.395 379.109 540.802 378.252 540.235 376.744C539.668 375.237 540.301 373.542 541.719 372.777Z" fill="#FBF1E0"/>
<path d="M411.283 424.376C411.319 425.829 411.22 425.779 412.096 426.914C421.455 418.451 430.836 408.768 440.067 399.975L440.119 419.902L440.201 427.512L411.225 443.184L411.119 528.633C411.127 534.225 411.931 554.474 411.024 558.768C406.795 561.512 402.045 565.145 398.03 567.636L303.283 633.38C285.23 645.807 264.218 659.585 247.023 672.57C242.577 677.684 234.19 691.073 230.052 697.196C222.315 708.692 213.901 719.715 204.852 730.209C200.961 734.637 189.49 747.537 184.77 750.958C172.931 751.311 160.468 753.839 147.919 753.869C111.127 756.015 29.007 748.97 8.52748 711.372C-22.8968 653.68 118.33 586.515 152.986 567.001C160.687 565.138 169.091 566.113 177.573 562.641C184.85 556.328 189.387 552.308 195.54 544.966C203.107 536.344 211.129 520.949 215.368 510.336C219.166 507.858 228.283 498.42 232.557 495C244.367 485.549 258.59 474.544 271.693 467.151L270.491 479.021C265.491 494.6 263.139 501.039 254.246 514.777L270.583 506.39L287.054 498.108C322.253 478.994 362.078 459.525 398.062 441.329L411.31 434.765C411.194 431.611 410.902 427.407 411.283 424.376ZM237.597 537.116C228.802 542.909 219.217 547.587 210.109 552.888C171.153 575.559 72.2992 629.841 63.0877 675.476C61.4047 683.816 62.61 692.03 67.455 699.118C79.884 717.299 105.323 724.032 125.884 727.689C147.666 731.564 169.42 731.223 191.445 731.009C191.189 682.992 191.246 634.975 191.615 586.959C199.622 589.66 213.009 595.772 221.147 599.176C237.701 605.907 254.186 612.806 270.6 619.873C271.649 588.774 270.923 550.706 270.605 519.323C265.949 521.879 240.241 536.369 237.597 537.116Z" fill="#00215C"/>
<path d="M411.283 424.376C411.319 425.829 411.22 425.779 412.096 426.914C421.455 418.451 430.836 408.768 440.067 399.975L440.119 419.902L440.201 427.512L411.225 443.184L397.561 450.605C360.43 470.018 323.528 489.865 286.863 510.144C284.066 511.684 272.513 517.825 270.605 519.323C265.949 521.879 240.241 536.369 237.597 537.116C228.802 542.909 219.217 547.587 210.109 552.888C171.153 575.559 72.2992 629.841 63.0877 675.476C61.4047 683.816 62.61 692.03 67.455 699.118C79.884 717.299 105.323 724.032 125.884 727.689C147.666 731.564 169.42 731.223 191.445 731.009C195.911 730.706 200.38 730.439 204.852 730.209C200.961 734.637 189.49 747.537 184.77 750.958C172.931 751.311 160.468 753.839 147.919 753.869C111.127 756.015 29.007 748.97 8.52748 711.372C-22.8968 653.68 118.33 586.515 152.986 567.001C160.687 565.138 169.091 566.113 177.573 562.641C184.85 556.328 189.387 552.308 195.54 544.966C203.107 536.344 211.129 520.949 215.368 510.336C219.166 507.858 228.283 498.42 232.557 495C244.367 485.549 258.59 474.544 271.693 467.151L270.491 479.021C265.491 494.6 263.139 501.039 254.246 514.777L270.583 506.39L287.054 498.108C322.253 478.994 362.078 459.525 398.062 441.329L411.31 434.765C411.194 431.611 410.902 427.407 411.283 424.376Z" fill="#FEB80A"/>
<path d="M215.368 510.336C219.166 507.858 228.283 498.42 232.557 495C244.367 485.549 258.59 474.544 271.693 467.151L270.491 479.021C265.491 494.6 263.139 501.039 254.246 514.777C246.513 523.51 240.802 529.676 231.878 537.248C215.882 547.98 196.786 559.106 177.573 562.641C184.85 556.328 189.387 552.308 195.54 544.966C203.107 536.344 211.129 520.949 215.368 510.336Z" fill="#FE5B52"/>
<path d="M411.283 424.376C411.319 425.829 411.22 425.779 412.096 426.914C421.455 418.451 430.836 408.768 440.067 399.975L440.119 419.902C431.304 424.467 420.111 430.663 411.31 434.765C411.194 431.611 410.902 427.407 411.283 424.376Z" fill="#00215C"/>
<path d="M286.863 510.144C287.414 548.659 286.99 587.958 286.953 626.53L303.283 633.38C285.23 645.807 264.218 659.585 247.023 672.57C242.577 677.684 234.19 691.073 230.052 697.196C222.315 708.692 213.901 719.715 204.852 730.209C200.38 730.439 195.911 730.706 191.445 731.009C191.189 682.992 191.246 634.975 191.615 586.959C199.622 589.66 213.009 595.772 221.147 599.176C237.701 605.907 254.186 612.806 270.6 619.873C271.649 588.774 270.923 550.706 270.605 519.323C272.513 517.825 284.066 511.684 286.863 510.144Z" fill="#0059FE"/>
<path d="M397.561 450.605L411.225 443.184L411.119 528.633C411.127 534.225 411.931 554.474 411.024 558.768C406.795 561.512 402.045 565.145 398.03 567.636C397.453 529.348 398.971 488.362 397.561 450.605Z" fill="#0059FE"/>
<path d="M270.684 129.981C279.568 134.47 297.632 146.682 306.341 152.283L362.242 187.857C371.439 193.828 380.68 199.73 389.965 205.564C396.365 209.553 405.245 214.595 410.833 219.336C411.533 226.736 411.171 237.331 411.144 244.945L411.163 287.196C411.333 332.037 411.906 379.683 411.283 424.376C410.902 427.407 411.194 431.611 411.31 434.765L398.062 441.329C362.078 459.525 322.253 478.994 287.054 498.108L270.583 506.39C270.677 497.267 270.646 488.144 270.491 479.021L271.693 467.151C272.625 461.86 272.205 452.17 272.055 446.682L270.47 430.633C271.413 395.934 270.693 358.691 270.678 323.74L270.684 129.981Z" fill="#00215C"/>
<path d="M270.684 129.981C279.568 134.47 297.632 146.682 306.341 152.283L362.242 187.857C371.439 193.828 380.68 199.73 389.965 205.564C396.365 209.553 405.245 214.595 410.833 219.336C411.533 226.736 411.171 237.331 411.144 244.945L411.163 287.196C411.333 332.037 411.906 379.683 411.283 424.376C410.902 427.407 411.194 431.611 411.31 434.765L398.062 441.329C397.116 369.808 398.638 297.809 397.758 226.357L323.169 178.391C311.887 171.19 298.403 162.095 287.013 155.397L286.979 380.011C286.972 417.709 285.865 460.831 287.054 498.108L270.583 506.39C270.677 497.267 270.646 488.144 270.491 479.021L271.693 467.151C272.625 461.86 272.205 452.17 272.055 446.682L270.47 430.633C271.413 395.934 270.693 358.691 270.678 323.74L270.684 129.981Z" fill="#0059FE"/>
<path d="M1133.58 487.306C1147.4 454.644 1177.21 428.121 1205.67 408.338C1210.76 418.84 1214.59 428.023 1217.82 439.241C1220.01 447.59 1222.01 455.989 1223.81 464.432C1225.46 472.562 1226.76 492.109 1225.52 500.552C1248.94 480.139 1286.09 461.704 1315.95 453.662C1318.44 516.865 1298.51 558.575 1250.08 598.586C1275.05 595.276 1303.23 593.649 1327.6 601.621C1320.34 616.17 1313.62 624.763 1303.53 637.513C1281.6 665.356 1244.34 689.371 1208.62 692.202C1185.02 694.074 1169.51 693.406 1146.12 699.115C1133.45 704.286 1133.04 704.644 1122.81 712.876L1122.72 710.538C1122.92 707.2 1123.72 705.208 1124.76 702.047L1124.58 701.156L1130.47 674.264C1130.07 671.947 1130.1 666.894 1130.05 664.354C1124.1 660.333 1122.29 666.182 1120.88 658.243C1121.13 655.375 1121.2 651.937 1121.34 649.014C1120.39 624.66 1118.05 613.096 1112.31 590.148L1114.96 592.501C1116.7 591.536 1116.02 592.203 1116.97 590.336C1118.98 594.402 1121.55 601.988 1123.3 606.487C1127.4 578.977 1133.86 549.898 1138.59 522.011C1138.17 511.283 1135.74 497.882 1133.58 487.306Z" fill="#003BCE"/>
<path d="M1133.58 487.306C1147.4 454.644 1177.21 428.121 1205.67 408.338C1210.76 418.84 1214.59 428.023 1217.82 439.241C1220.01 447.59 1222.01 455.989 1223.81 464.432C1225.46 472.562 1226.76 492.109 1225.52 500.552C1186.11 535.255 1162.75 568.073 1145.04 617.901C1144.85 620.693 1144.4 620.704 1145.47 622.809C1143.81 626.63 1142.15 630.594 1140.38 634.351C1136.04 647.625 1133.18 660.572 1130.47 674.264C1130.07 671.947 1130.1 666.894 1130.05 664.354C1124.1 660.333 1122.29 666.182 1120.88 658.243C1121.13 655.375 1121.2 651.937 1121.34 649.014C1120.39 624.66 1118.05 613.096 1112.31 590.148L1114.96 592.501C1116.7 591.536 1116.02 592.203 1116.97 590.336C1118.98 594.402 1121.55 601.988 1123.3 606.487C1127.4 578.977 1133.86 549.898 1138.59 522.011C1138.17 511.283 1135.74 497.882 1133.58 487.306Z" fill="#0059FE"/>
<path d="M1138.59 522.011C1144.92 541.427 1145.7 594.279 1143.24 614.577C1142.04 621.246 1140.76 627.58 1140.38 634.351C1136.04 647.625 1133.18 660.572 1130.47 674.264C1130.07 671.947 1130.1 666.894 1130.05 664.354C1124.1 660.333 1122.29 666.182 1120.88 658.243C1121.13 655.375 1121.2 651.937 1121.34 649.014C1120.39 624.66 1118.05 613.096 1112.31 590.148L1114.96 592.501C1116.7 591.536 1116.02 592.203 1116.97 590.336C1118.98 594.402 1121.55 601.988 1123.3 606.487C1127.4 578.977 1133.86 549.898 1138.59 522.011Z" fill="#00215C"/>
<path d="M1121.34 649.014L1121.68 649.062C1121.99 651.71 1121.63 652.552 1123.13 654.353C1125.36 653.53 1125.9 652.148 1127.39 649.831C1128.24 654.68 1129.12 659.521 1130.05 664.354C1124.1 660.333 1122.29 666.182 1120.88 658.243C1121.13 655.375 1121.2 651.937 1121.34 649.014Z" fill="#00617D"/>
<path d="M1121.68 649.062C1122.78 645.468 1123.25 644.486 1125 641.173L1127.39 649.831C1125.9 652.148 1125.36 653.53 1123.13 654.353C1121.63 652.552 1121.99 651.71 1121.68 649.062Z" fill="#01738B"/>
<path d="M1250.08 598.586C1275.05 595.276 1303.23 593.649 1327.6 601.621C1320.34 616.17 1313.62 624.763 1303.53 637.513C1281.6 665.356 1244.34 689.371 1208.62 692.202C1185.02 694.074 1169.51 693.406 1146.12 699.115C1133.45 704.286 1133.04 704.644 1122.81 712.876L1122.72 710.538C1122.92 707.2 1123.72 705.208 1124.76 702.047L1127.61 699.81C1134.32 686.051 1142.62 677.392 1147.68 667.353C1150.15 664.954 1152.93 661.199 1155.18 658.515C1173.15 636.967 1195.38 619.615 1221.07 608.279C1230.45 604.139 1241.55 602.509 1250.08 598.586Z" fill="#0059FE"/>
<path d="M1250.08 598.586C1275.05 595.276 1303.23 593.649 1327.6 601.621C1320.34 616.17 1313.62 624.763 1303.53 637.513C1259.3 628.196 1207.92 638.877 1170.45 663.795C1152.1 676.002 1142.48 685.778 1128.88 702.61L1127.61 699.81C1134.32 686.051 1142.62 677.392 1147.68 667.353C1150.15 664.954 1152.93 661.199 1155.18 658.515C1173.15 636.967 1195.38 619.615 1221.07 608.279C1230.45 604.139 1241.55 602.509 1250.08 598.586Z" fill="#FEB80A"/>
<path d="M1127.61 699.81L1128.88 702.61C1126.95 705.115 1124.73 708.169 1122.72 710.538C1122.92 707.2 1123.72 705.208 1124.76 702.047L1127.61 699.81Z" fill="#F9906E"/>
<path d="M1145.47 622.809C1162.98 588.65 1182.43 572.083 1217.43 556.128C1207.37 576.261 1198.3 595.095 1185.88 614.09C1180.89 621.631 1175.72 629.042 1170.35 636.315C1166.18 641.946 1149.12 663.313 1147.68 667.353C1142.62 677.392 1134.32 686.051 1127.61 699.81L1124.76 702.047L1124.58 701.156L1130.47 674.264C1133.18 660.572 1136.04 647.625 1140.38 634.351C1142.15 630.594 1143.81 626.63 1145.47 622.809Z" fill="#D05CF6"/>
<path d="M160.438 348.732C189.299 347.263 215.952 356.104 237.542 375.567C255.958 392.168 262.696 407.973 270.47 430.633L272.055 446.682C272.205 452.17 272.625 461.86 271.693 467.151C258.59 474.544 244.367 485.549 232.557 495C228.283 498.42 219.166 507.858 215.368 510.336C211.129 520.949 203.107 536.344 195.54 544.966C189.387 552.308 184.85 556.328 177.573 562.641C169.091 566.113 160.687 565.138 152.986 567.001C144.405 566.908 135.863 565.829 127.527 563.785C102.124 557.469 80.3392 541.178 67.0965 518.594C50.334 490.556 48.2025 461.439 56.043 430.261C60.7845 414.918 68.709 400.748 79.2975 388.676C101.481 363.764 127.121 350.646 160.438 348.732Z" fill="#0092FD"/>
<path d="M152.986 567.001C144.405 566.908 135.863 565.829 127.527 563.785C102.124 557.469 80.3392 541.178 67.0965 518.594C50.334 490.556 48.2025 461.439 56.043 430.261C96.3915 429.683 123.456 445.932 152.944 473.197C170.951 489.846 192.652 519.902 195.54 544.966C189.387 552.308 184.85 556.328 177.573 562.641C169.091 566.113 160.687 565.138 152.986 567.001Z" fill="#003197"/>
<path d="M160.438 348.732C189.299 347.263 215.952 356.104 237.542 375.567C255.958 392.168 262.696 407.973 270.47 430.633L272.055 446.682C272.205 452.17 272.625 461.86 271.693 467.151C258.59 474.544 244.367 485.549 232.557 495C228.283 498.42 219.166 507.858 215.368 510.336C222.726 491.371 226.132 471.102 225.379 450.772C224.091 413.879 211.967 385.244 185.211 360.186C172.479 352.135 168.755 353.314 160.438 348.732Z" fill="#FEB80A"/>
<path d="M160.438 348.732C189.299 347.263 215.952 356.104 237.542 375.567C255.958 392.168 262.696 407.973 270.47 430.633L272.055 446.682C262.547 416.991 231.021 387.819 205.841 371.421C200.349 367.845 191.353 362.137 185.211 360.186C172.479 352.135 168.755 353.314 160.438 348.732Z" fill="#FDF0CD"/>
<path d="M1011.86 290.389C1049.62 274.807 1084.59 267.678 1124.79 263.029C1124.85 327.857 1125.63 394.33 1124.76 459.02C1128.07 468.253 1131.46 477.71 1133.58 487.306C1135.74 497.882 1138.17 511.283 1138.59 522.011C1133.86 549.898 1127.4 578.977 1123.3 606.487C1121.55 601.988 1118.98 594.402 1116.97 590.336C1116.02 592.203 1116.7 591.536 1114.96 592.501L1112.31 590.148C1109.72 582.536 1107.04 574.951 1104.3 567.394C1088.32 536.674 1077.62 522.5 1048.9 502.885C1036.01 495.081 1025.75 490.38 1011.9 484.615C1005.27 481.898 998.013 479.282 991.286 476.712C990.378 459.998 991.315 439.719 991.278 422.526L991.218 299.533C997.795 296.308 1005.09 293.309 1011.86 290.389Z" fill="#00215C"/>
<path d="M1042.23 356.69C1070.21 379.511 1093.31 402.112 1112.01 433.651C1116.93 441.963 1120.37 450.53 1124.76 459.02C1128.07 468.253 1131.46 477.71 1133.58 487.306C1135.74 497.882 1138.17 511.283 1138.59 522.011C1133.86 549.898 1127.4 578.977 1123.3 606.487C1121.55 601.988 1118.98 594.402 1116.97 590.336C1116.02 592.203 1116.7 591.536 1114.96 592.501L1112.31 590.148C1109.72 582.536 1107.04 574.951 1104.3 567.394C1088.32 536.674 1077.62 522.5 1048.9 502.885C1024.75 449.96 1027.99 412.425 1042.23 356.69Z" fill="#D05CF6"/>
<path d="M1104.3 567.394C1108.34 572.593 1114.83 584.082 1116.97 590.336C1116.02 592.203 1116.7 591.536 1114.96 592.501L1112.31 590.148C1109.72 582.536 1107.04 574.951 1104.3 567.394Z" fill="#003197"/>
<path d="M991.218 299.533C997.795 296.308 1005.09 293.309 1011.86 290.389L1011.9 484.615C1005.27 481.898 998.013 479.282 991.286 476.712C990.378 459.998 991.315 439.719 991.278 422.526L991.218 299.533Z" fill="#FDF0CD"/>
<path d="M963.528 538.338C961.203 532.672 955.983 524.341 953.185 518.13C945.461 501.005 935.89 473.418 934.038 454.918L935.365 454.523C944.891 458.034 954.161 462.188 963.581 465.914C971.546 468.908 983.868 473.174 991.286 476.712C998.013 479.282 1005.27 481.898 1011.9 484.615C1025.75 490.38 1036.01 495.081 1048.9 502.885C1077.62 522.5 1088.32 536.674 1104.3 567.394C1107.04 574.951 1109.72 582.536 1112.31 590.148C1118.05 613.096 1120.39 624.66 1121.34 649.014C1121.2 651.937 1121.13 655.375 1120.88 658.243C1122.29 666.182 1124.1 660.333 1130.05 664.354C1130.1 666.894 1130.07 671.947 1130.47 674.264L1124.58 701.156L1124.76 702.047C1123.72 705.208 1122.92 707.2 1122.72 710.538L1122.81 712.876C1133.04 704.644 1133.45 704.286 1146.12 699.115C1145.5 715.982 1145.29 740.718 1146.03 757.68C1139.22 761.761 1130.49 766.727 1123.41 770.231C1118.78 767.155 1114.65 763.989 1110.24 760.628C1106.9 757.935 1103.54 754.889 1100.3 752.054L1096.77 748.213L1095.57 747.357C1082.65 733.808 1072.34 720.561 1060.26 706.42C1053.14 697.346 1044.61 687.396 1036.98 678.703C1026.55 668.277 1016.01 657.954 1005.38 647.737C1001.32 643.898 990.378 634.729 987.67 630.928L991.263 632.81C991.188 612.748 991.263 592.686 991.473 572.625C990.558 571.397 988.255 569.331 987.04 568.127C977.68 558.903 970.683 549.305 963.528 538.338Z" fill="#0092FD"/>
<path d="M991.473 572.625C998.201 577.897 1004.86 583.159 1012 587.848C1057.44 616.202 1089.77 610.994 1119.85 661.14L1120.58 658.311L1120.88 658.243C1122.29 666.182 1124.1 660.333 1130.05 664.354C1130.1 666.894 1130.07 671.947 1130.47 674.264L1124.58 701.156L1124.76 702.047C1123.72 705.208 1122.92 707.2 1122.72 710.538L1122.81 712.876C1133.04 704.644 1133.45 704.286 1146.12 699.115C1145.5 715.982 1145.29 740.718 1146.03 757.68C1139.22 761.761 1130.49 766.727 1123.41 770.231C1118.78 767.155 1114.65 763.989 1110.24 760.628C1106.9 757.935 1103.54 754.889 1100.3 752.054L1096.77 748.213L1095.57 747.357C1082.65 733.808 1072.34 720.561 1060.26 706.42C1053.14 697.346 1044.61 687.396 1036.98 678.703C1026.55 668.277 1016.01 657.954 1005.38 647.737C1001.32 643.898 990.378 634.729 987.67 630.928L991.263 632.81C991.188 612.748 991.263 592.686 991.473 572.625Z" fill="#00215C"/>
<path d="M987.67 630.928L991.263 632.81C998.125 636.669 1005.03 640.453 1011.97 644.163C1041.54 659.31 1068.68 676.233 1096.78 693.624C1096.74 711.641 1097.1 730.285 1096.77 748.213L1095.57 747.357C1082.65 733.808 1072.34 720.561 1060.26 706.42C1053.14 697.346 1044.61 687.396 1036.98 678.703C1026.55 668.277 1016.01 657.954 1005.38 647.737C1001.32 643.898 990.378 634.729 987.67 630.928Z" fill="#FEB80A"/>
<path d="M1122.81 712.876C1133.04 704.644 1133.45 704.286 1146.12 699.115C1145.5 715.982 1145.29 740.718 1146.03 757.68C1139.22 761.761 1130.49 766.727 1123.41 770.231C1118.78 767.155 1114.65 763.989 1110.24 760.628C1111.2 754.139 1119.94 717.062 1122.81 712.876Z" fill="#00215C"/>
<path d="M991.473 572.625C998.201 577.897 1004.86 583.159 1012 587.848C1011.66 606.62 1012 625.39 1011.97 644.163C1005.03 640.453 998.125 636.669 991.263 632.81C991.188 612.748 991.263 592.686 991.473 572.625Z" fill="#FDF0CD"/>
<path d="M1120.58 658.311L1120.88 658.243C1122.29 666.182 1124.1 660.333 1130.05 664.354C1130.1 666.894 1130.07 671.947 1130.47 674.264L1124.58 701.156L1124.76 702.047C1123.72 705.208 1122.92 707.2 1122.72 710.538L1122.81 712.876C1119.94 717.062 1111.2 754.139 1110.24 760.628C1106.9 757.935 1103.54 754.889 1100.3 752.054C1103.35 737.562 1110.62 717.565 1114.76 701.336C1116.75 694.412 1121.78 667.523 1119.85 661.14L1120.58 658.311Z" fill="#01738B"/>
<path d="M935.365 454.523C944.891 458.034 954.161 462.188 963.581 465.914C971.546 468.908 983.868 473.174 991.286 476.712C998.013 479.282 1005.27 481.898 1011.9 484.615C1025.75 490.38 1036.01 495.081 1048.9 502.885C1077.62 522.5 1088.32 536.674 1104.3 567.394C1107.04 574.951 1109.72 582.536 1112.31 590.148C1118.05 613.096 1120.39 624.66 1121.34 649.014C1121.2 651.937 1121.13 655.375 1120.88 658.243L1120.58 658.311C1103.94 589.207 1039.01 532.577 984.505 491.25C973.855 483.246 963.153 475.307 952.398 467.434C947.688 463.964 940.045 458.679 935.823 454.935L935.365 454.523Z" fill="#FEB80A"/>
<path d="M1148.1 390.302C1134.61 379.238 1128.14 361.757 1131.16 344.571C1134.18 327.385 1146.24 313.166 1162.7 307.374C1179.15 301.581 1197.45 305.117 1210.57 316.622C1230.39 334.008 1232.61 364.077 1215.56 384.187C1198.51 404.297 1168.49 407.018 1148.1 390.302Z" fill="#FDF0CD"/>
<path d="M1148.1 390.302C1134.61 379.238 1128.14 361.757 1131.16 344.571C1134.18 327.385 1146.24 313.166 1162.7 307.374C1179.15 301.581 1197.45 305.117 1210.57 316.622C1179.27 330.233 1158.34 358.384 1148.1 390.302Z" fill="#0092FD"/>
<path d="M991.548 93.374C998.471 96.0192 1004.7 99.1459 1011.88 101.455L1086.42 141.915C1095.07 146.557 1117.68 157.842 1124.37 162.557C1125.24 172.457 1124.88 186.88 1124.87 197.073L1124.8 253.656C1092.65 257.702 1062.45 262.582 1031.5 272.782C1027.28 274.173 1015.97 277.799 1012.17 279.774C1004.55 282.342 998.756 284.904 991.376 288.2L991.278 191.111C991.143 159.058 990.663 125.404 991.548 93.374Z" fill="#0059FE"/>
<path d="M1012.02 256.395C1049.2 224.79 1086.65 193.51 1124.37 162.557C1125.24 172.457 1124.88 186.88 1124.87 197.073L1124.8 253.656C1092.65 257.702 1062.45 262.582 1031.5 272.782C1027.28 274.173 1015.97 277.799 1012.17 279.774C1011.81 271.985 1011.77 264.186 1012.02 256.395Z" fill="#00215C"/>
<path d="M991.548 93.374C998.471 96.0192 1004.7 99.1459 1011.88 101.455L1012.02 256.395C1011.77 264.186 1011.81 271.985 1012.17 279.774C1004.55 282.342 998.756 284.904 991.376 288.2L991.278 191.111C991.143 159.058 990.663 125.404 991.548 93.374Z" fill="#FDF0CD"/>
<path d="M864.265 285.343C884.643 267.021 904.878 248.538 924.963 229.895C925.443 240.835 925.045 253.481 925.03 264.573L925.06 328.734C938.725 317.681 949.008 311.374 963.603 301.905C972.618 297.239 982.068 292.119 991.376 288.2C998.756 284.904 1004.55 282.342 1012.17 279.774C1015.97 277.799 1027.28 274.173 1031.5 272.782C1062.45 262.582 1092.65 257.702 1124.8 253.656C1184.29 247.389 1262.59 250.084 1311.95 288.332C1349.01 317.047 1341.27 358.823 1314.27 390.663C1288.2 421.413 1257.69 443.103 1223.81 464.432C1222.01 455.989 1220.01 447.59 1217.82 439.241C1250.72 416.581 1299.95 379.218 1298.33 334.007C1297.84 320.567 1289.88 306.264 1279.82 297.313C1247.49 268.551 1199.14 262.002 1157.49 261.654C1146.3 261.561 1135.64 262.573 1124.79 263.029C1084.59 267.678 1049.62 274.807 1011.86 290.389C1005.09 293.309 997.795 296.308 991.218 299.533C981.543 304.295 973.061 308.522 963.633 313.776C954.093 319.11 932.32 332.484 924.475 340.148C920.035 336.823 909.108 326.417 904.795 322.455C893.178 311.74 881.485 301.108 869.718 290.562L864.265 285.343Z" fill="#FEB80A"/>
<path d="M421.959 0C427.486 6.57378 422.512 63.4635 443.941 89.7454C458.098 107.107 479.444 111.419 500.495 113.691C498.335 113.944 496.176 114.216 494.02 114.505C428.224 123.161 428.091 166.146 424.177 220.709C424 223.194 423.717 233.414 422.578 234.901L421.642 233.155C420.602 217.421 419.36 201.498 417.778 185.861C412.38 132.516 388.047 119.467 339.475 113.698C421.345 105.903 413.417 65.3577 421.959 0Z" fill="#FEB80A"/>
<path d="M1146.03 757.68L1206.64 723.866C1207.29 755.602 1206.98 787.59 1207.21 819.39C1187.74 806.074 1170.05 793.981 1148.27 784.349C1141.05 779.848 1131.36 775.062 1123.41 770.231C1130.49 766.727 1139.22 761.761 1146.03 757.68Z" fill="#0059FE"/>
<path d="M210.73 204.795C212.65 208.145 211.739 213.022 212.143 216.863C213.983 234.333 212.959 258.851 222.988 273.731C230.607 285.036 240.759 287.927 252.924 290.214C222.496 297.068 215.668 310.745 212.611 341.264C212.285 344.511 212.427 348.756 210.646 350.961C210.19 347.583 210.08 343.472 209.734 340.014C206.767 310.391 197.292 294.477 166.851 290.45C176.797 288.895 184.938 287.567 193.031 280.728C211.604 265.035 208.834 227.852 210.73 204.795Z" fill="#FEB80A"/>
</g>
<defs>
<filter id="filter0_din_694_48" x="0" y="0" width="1341.17" height="939.415" filterUnits="userSpaceOnUse" color-interpolation-filters="sRGB">
<feFlood flood-opacity="0" result="BackgroundImageFix"/>
<feColorMatrix in="SourceAlpha" type="matrix" values="0 0 0 0 0 0 0 0 0 0 0 0 0 0 0 0 0 0 127 0" result="hardAlpha"/>
<feOffset dy="4"/>
<feGaussianBlur stdDeviation="2"/>
<feComposite in2="hardAlpha" operator="out"/>
<feColorMatrix type="matrix" values="0 0 0 0 0 0 0 0 0 0 0 0 0 0 0 0 0 0 0.25 0"/>
<feBlend mode="normal" in2="BackgroundImageFix" result="effect1_dropShadow_694_48"/>
<feBlend mode="normal" in="SourceGraphic" in2="BackgroundImageFix" result="shape"/>
<feColorMatrix in="SourceAlpha" type="matrix" values="0 0 0 0 0 0 0 0 0 0 0 0 0 0 0 0 0 0 127 0" result="hardAlpha"/>
<feOffset dy="4"/>
<feGaussianBlur stdDeviation="2"/>
<feComposite in2="hardAlpha" operator="arithmetic" k2="-1" k3="1"/>
<feColorMatrix type="matrix" values="0 0 0 0 0 0 0 0 0 0 0 0 0 0 0 0 0 0 0.25 0"/>
<feBlend mode="normal" in2="shape" result="effect2_innerShadow_694_48"/>
<feTurbulence type="fractalNoise" baseFrequency="2 2" stitchTiles="stitch" numOctaves="3" result="noise" seed="3664" />
<feColorMatrix in="noise" type="luminanceToAlpha" result="alphaNoise" />
<feComponentTransfer in="alphaNoise" result="coloredNoise1">
<feFuncA type="discrete" tableValues="1 1 1 1 1 1 1 1 1 1 1 1 1 1 1 1 1 1 1 1 1 1 1 1 1 1 1 1 1 1 1 1 1 1 1 1 1 1 1 1 1 1 1 1 1 1 1 1 1 1 1 0 0 0 0 0 0 0 0 0 0 0 0 0 0 0 0 0 0 0 0 0 0 0 0 0 0 0 0 0 0 0 0 0 0 0 0 0 0 0 0 0 0 0 0 0 0 0 0 0 "/>
</feComponentTransfer>
<feComposite operator="in" in2="effect2_innerShadow_694_48" in="coloredNoise1" result="noise1Clipped" />
<feFlood flood-color="rgba(0, 0, 0, 0.25)" result="color1Flood" />
<feComposite operator="in" in2="noise1Clipped" in="color1Flood" result="color1" />
<feMerge result="effect3_noise_694_48">
<feMergeNode in="effect2_innerShadow_694_48" />
<feMergeNode in="color1" />
</feMerge>
<feBlend mode="normal" in="effect3_noise_694_48" in2="effect1_dropShadow_694_48" result="effect3_noise_694_48"/>
</filter>
</defs>
</svg>
